<svg width="0" height="0" class="hidden">


    <!-- ============== GENERAL ICONS ============== -->

    <!-- Profile -->
    <symbol id="i-profile" xmlns="http://www.w3.org/2000/svg" viewBox="0 0 22 22">
        <path fill-rule="evenodd" clip-rule="evenodd" d="M11 12c2.8 0 5-2.2 5-5s-2.2-5-5-5-5 2.2-5 5 2.2 5 5 5zm0 2c3.9 0 7-3.1 7-7s-3.1-7-7-7-7 3.1-7 7 3.1 7 7 7zm-7.6-2c-.2-.3-.7-.5-1-.3C.9 12.6 0 14.2 0 16v1c0 2.8 2.2 5 5 5h12c2.8 0 5-2.2 5-5v-1c0-1.8-.9-3.4-2.4-4.2-.4-.2-.8-.1-1 .3-.3.5-.1 1.3.3 1.7.6.6 1 1.4 1 2.3v1c0 1.7-1.3 3-3 3H5c-1.7 0-3-1.3-3-3v-1c0-.9.4-1.7 1-2.3.5-.5.7-1.2.4-1.8z"></path>
    </symbol>

    <!-- Compare  -->
    <symbol id="i-compare" xmlns="http://www.w3.org/2000/svg" viewBox="0 0 22 22">
        <path fill-rule="evenodd" clip-rule="evenodd" d="M20 19V7.3c0-.6-.4-1-1-1s-1 .4-1 1V19c0 .6.4 1 1 1s1-.4 1-1zm-4 0c0 1.7 1.3 3 3 3s3-1.3 3-3V7.3c0-1.7-1.3-3-3-3s-3 1.3-3 3V19zm-4 0V8.5c0-.6-.4-1-1-1s-1 .4-1 1V19c0 .6.4 1 1 1s1-.4 1-1zm-8 0V3c0-.6-.4-1-1-1s-1 .4-1 1v16c0 .6.4 1 1 1s1-.4 1-1zM3 0C1.3 0 0 1.3 0 3v16c0 1.7 1.3 3 3 3s3-1.3 3-3V3c0-1.7-1.3-3-3-3zm5 8.5c0-1.7 1.3-3 3-3s3 1.3 3 3V19c0 1.7-1.3 3-3 3s-3-1.3-3-3V8.5z"></path>
    </symbol>

    <!-- Basket  -->
    <symbol id="i-basket" xmlns="http://www.w3.org/2000/svg" viewBox="0 0 22 22">
        <path fill-rule="evenodd" clip-rule="evenodd" d="M18 6V4c0-2.2-1.8-4-4-4H8C5.8 0 4 1.8 4 4v2c-2.2 0-4 1.8-4 4v8c0 2.2 1.8 4 4 4h14c2.2 0 4-1.8 4-4v-8c0-2.2-1.8-4-4-4zM6 4c0-1.1.9-2 2-2h6c1.1 0 2 .9 2 2v2H6V4zm14 14c0 1.1-.9 2-2 2H4c-1.1 0-2-.9-2-2v-8c0-1.1.9-2 2-2v5c0 .6.4 1 1 1s1-.4 1-1V8h10v5c0 .6.4 1 1 1s1-.4 1-1V8c1.1 0 2 .9 2 2v8z"></path>
    </symbol>

    <!-- Basket In  -->
    <symbol id="i-basket_in" xmlns="http://www.w3.org/2000/svg" viewBox="0 0 22 22">
        <path fill-rule="evenodd" clip-rule="evenodd" d="M18 6.1V4c0-2.2-1.8-4-4-4H8C5.8 0 4 1.8 4 4v2.1c-2.3.5-4 2.5-4 4.9v6c0 2.8 2.2 5 5 5h8c.6 0 1-.4 1-1s-.4-1-1-1H5c-1.7 0-3-1.3-3-3v-6c0-1.3.8-2.4 2-2.8v4.6c0 .6.4 1 1 1s1-.4 1-1V8h10v4.8c0 .6.4 1 1 1s1-.4 1-1V8.2c1.2.4 2 1.5 2 2.8v2c0 .6.4 1 1 1s1-.4 1-1v-2c0-2.4-1.7-4.4-4-4.9zM6 6V4c0-1.1.9-2 2-2h6c1.1 0 2 .9 2 2v2H6zm15.9 10.5L19.4 21c-.2.3-.4.5-.7.5-.3 0-.6-.1-.8-.3l-2.5-2.5c-.4-.4-.4-1 0-1.4.4-.4 1-.4 1.4 0l1.6 1.6 1.9-3.3c.3-.5.9-.7 1.4-.4s.4.8.2 1.3z"></path>
    </symbol>

    <!-- Basket Add  -->
    <symbol id="i-basket_add" xmlns="http://www.w3.org/2000/svg" viewBox="0 0 22 22">
        <path fill-rule="evenodd" clip-rule="evenodd" d="M18 6.1V4c0-2.2-1.8-4-4-4H8C5.8 0 4 1.8 4 4v2.1c-2.3.5-4 2.5-4 4.9v6c0 2.8 2.2 5 5 5h8c.6 0 1-.4 1-1s-.4-1-1-1H5c-1.7 0-3-1.3-3-3v-6c0-1.3.8-2.4 2-2.8v4.6c0 .6.4 1 1 1s1-.4 1-1V8h10v4.8c0 .6.4 1 1 1s1-.4 1-1V8.2c1.2.4 2 1.5 2 2.8v2c0 .6.4 1 1 1s1-.4 1-1v-2c0-2.4-1.7-4.4-4-4.9zM6 6V4c0-1.1.9-2 2-2h6c1.1 0 2 .9 2 2v2H6zm16 12.5c0 .6-.4 1-1 1h-1.5V21c0 .6-.4 1-1 1s-1-.4-1-1v-1.5H16c-.6 0-1-.4-1-1s.4-1 1-1h1.5V16c0-.6.4-1 1-1s1 .4 1 1v1.5H21c.6 0 1 .4 1 1z"></path>
    </symbol>

    <!-- Hamburger  -->
    <symbol id="i-hamburger" xmlns="http://www.w3.org/2000/svg" viewBox="0 0 22 22">
        <path fill-rule="evenodd" clip-rule="evenodd" d="M0 4c0-.6.4-1 1-1h20c.6 0 1 .4 1 1s-.4 1-1 1H1c-.6 0-1-.4-1-1zm0 7c0-.6.4-1 1-1h20c.6 0 1 .4 1 1s-.4 1-1 1H1c-.6 0-1-.4-1-1zm0 7c0-.6.4-1 1-1h20c.6 0 1 .4 1 1s-.4 1-1 1H1c-.6 0-1-.4-1-1z"></path>
    </symbol>

    <!-- Search  -->
    <symbol id="i-search" xmlns="http://www.w3.org/2000/svg" viewBox="0 0 22 22">
        <path fill-rule="evenodd" clip-rule="evenodd" d="M21.7 20.3L16 14.6c1.2-1.5 2-3.5 2-5.6 0-5-4-9-9-9S0 4 0 9s4 9 9 9c2.1 0 4.1-.7 5.6-2l5.7 5.7c.4.4 1 .4 1.4 0s.4-1 0-1.4zM9 16c-3.9 0-7-3.1-7-7s3.1-7 7-7 7 3.1 7 7-3.1 7-7 7z"></path>
    </symbol>

    <!-- Trash  -->
    <symbol id="i-trash" xmlns="http://www.w3.org/2000/svg" viewBox="0 0 22 22">
        <path fill-rule="evenodd" clip-rule="evenodd" d="M17.4 2H4.6c-1.2 0-2.1 1.1-2 2.3l1.9 14c.1 1 1 1.7 2 1.7h9c1 0 1.8-.7 2-1.7l1.9-14c.2-1.2-.8-2.3-2-2.3zM4.6 0C2.2 0 .3 2.1.6 4.5l1.9 14c.3 2 2 3.5 4 3.5h9c2 0 3.7-1.5 4-3.5l1.9-14c.3-2.4-1.5-4.5-4-4.5H4.6zm1.3 6c.5-.1 1 .3 1.1.9l1 9c.1.5-.3 1-.9 1.1-.5.1-1-.3-1.1-.9l-1-9c-.1-.5.3-1 .9-1.1zm10.2 0c.5.1.9.6.9 1.1l-1 9c-.1.5-.6.9-1.1.9-.5-.1-.9-.6-.9-1.1l1-9c.1-.6.6-1 1.1-.9zM11 7c.6 0 1 .4 1 1v8c0 .6-.4 1-1 1s-1-.4-1-1V8c0-.6.4-1 1-1z"></path>
    </symbol>

    <!-- Wish  -->
    <symbol id="i-wish" xmlns="http://www.w3.org/2000/svg" viewBox="0 0 22 22">
        <path fill-rule="evenodd" clip-rule="evenodd" d="M11 22c-.5 0-1-.2-1.3-.6l-7.8-8.9C-.6 9.6-.6 5.1 1.9 2.2l.3-.3C3.5.6 5.1-.1 6.9 0c1.6.1 3 .7 4.1 1.8C12.2.7 13.7 0 15.4 0c1.8 0 3.5.8 4.8 2.2 2.5 2.9 2.5 7.3 0 10.3l-7.9 8.9c-.4.4-.9.6-1.3.6zM6.6 2c-1.1 0-2.2.5-3 1.3l-.2.2c-1.9 2.2-1.9 5.5 0 7.7l7.6 8.6 7.6-8.6c1.8-2.1 1.8-5.5 0-7.7-.8-1-2-1.5-3.2-1.5-1.2 0-2.4.6-3.2 1.5l-.4.4c-.4.4-1.1.4-1.5 0l-.4-.4C9.1 2.6 8 2 6.8 2h-.2z"></path>
    </symbol>


    <!-- Arrow down of form  -->
    <symbol id="i-arrow-d" xmlns="http://www.w3.org/2000/svg" viewBox="0 0 22 22" >
        <path fill-rule="evenodd" clip-rule="evenodd" d="M21.671 6.758c.41.371.441 1.003.071 1.412l-9.5 10.5c-.181.2-.435.318-.704.328-.27.01-.532-.089-.727-.275l-10.5-10c-.4-.381-.415-1.014-.034-1.414.381-.4 1.014-.415 1.414-.034l9.757 9.292 8.812-9.739c.37-.41 1.003-.441 1.412-.071z"/>
    </symbol>

    <!-- Filter  -->
    <symbol id="i-filter" xmlns="http://www.w3.org/2000/svg" viewBox="0 0 23 22">
        <path fill-rule="evenodd" clip-rule="evenodd" d="M20.99 2h-18.027l7.276 8.647c.607.721.939 1.633.939 2.575v6.684l2.57-.888v-5.868c0-.853.273-1.684.779-2.372l6.463-8.778zm-18.027-2h18.027c1.64 0 2.583 1.865 1.61 3.186l-6.463 8.778c-.253.344-.389.759-.389 1.186v5.868c0 .853-.541 1.612-1.347 1.89l-2.57.889c-1.299.449-2.653-.516-2.653-1.89v-6.684c0-.471-.166-.927-.47-1.288l-7.276-8.647c-1.095-1.301-.17-3.288 1.53-3.288z"/>
    </symbol>

    <!-- Close  -->
    <symbol id="i-close" xmlns="http://www.w3.org/2000/svg" viewBox="0 0 22 22">
        <path d="M12.4 11l7.3-7.3c.4-.4.4-1 0-1.4s-1-.4-1.4 0L11 9.6 3.7 2.3c-.4-.4-1-.4-1.4 0s-.4 1 0 1.4L9.6 11l-7.3 7.3c-.4.4-.4 1 0 1.4.2.2.4.3.7.3s.5-.1.7-.3l7.3-7.3 7.3 7.3c.2.2.5.3.7.3s.5-.1.7-.3c.4-.4.4-1 0-1.4L12.4 11z"/>
    </symbol>

    <!--  Logo  -->
    <symbol id="i-logo" xmlns="http://www.w3.org/2000/svg" viewBox="0 0 139 16">
        <path d="M137.8 2.4L136.5 1.1C136.1 0.8 135.4 0.5 134.9 0.5H122.2V15.5H134.9C135.4 15.5 136.1 15.2 136.5 14.9L137.8 13.6C138.2 13.3 138.5 12.6 138.5 12.1V4C138.5 3.5 138.2 2.8 137.8 2.4ZM132.9 12.8C132.9 13 132.8 13.1 132.6 13.1H128.2C128 13.1 127.9 13 127.9 12.8V3.2C127.9 3 128 2.9 128.2 2.9H132.6C132.8 2.9 132.9 3 132.9 3.2V12.8ZM118.2 0.5H115C114.3 0.5 113.8 1 113.8 1.7V7.9L107.9 0.9C107.7 0.6 107.3 0.5 106.9 0.5H103.8C103.1 0.5 102.6 1 102.6 1.7V14.3C102.6 15 103.2 15.5 103.8 15.5H106.9C107.6 15.5 108.2 15 108.2 14.3V5.1L113.8 11.7V14.3C113.8 15 114.4 15.5 115 15.5H118.1C118.8 15.5 119.3 15 119.3 14.3V1.7C119.4 1 118.9 0.5 118.2 0.5ZM99.7 1.7C99.7 1 99.1 0.5 98.4 0.5H84.7C84 0.5 83.4 1 83.4 1.7V14.3C83.4 15 84 15.5 84.7 15.5H98.5C99.2 15.5 99.8 15 99.8 14.3V1.7H99.7ZM94.1 12.8C94.1 13 94 13.1 93.8 13.1H89.4C89.2 13.1 89.1 13 89.1 12.8V3.2C89.1 3 89.2 2.9 89.4 2.9H93.8C94 2.9 94.1 3 94.1 3.2V12.8ZM79.4 0.5H76.3C75.9 0.5 75.6 0.7 75.4 0.9L70 7.2L64.8 1C64.6 0.7 64.2 0.5 63.8 0.5H60.7C60 0.5 59.4 1 59.4 1.7V14.3C59.4 15 60 15.5 60.7 15.5H63.8C64.5 15.5 65.1 15 65.1 14.3V5.1L68.9 9.5V14.3C68.9 15 69.5 15.5 70.2 15.5C70.9 15.5 71.5 15 71.5 14.3V9.5L75 5.1V14.3C75 15 75.6 15.5 76.3 15.5H79.4C80.1 15.5 80.7 15 80.7 14.3V1.7C80.7 1 80.1 0.5 79.4 0.5ZM56 2.4L54.7 1.1C54.3 0.8 53.6 0.5 53.1 0.5H40.3V15.5H53C53.5 15.5 54.2 15.2 54.6 14.9L55.9 13.6C56.3 13.3 56.6 12.6 56.6 12.1V4C56.6 3.5 56.3 2.8 56 2.4ZM51 12.8C51 13 50.9 13.1 50.7 13.1H46.3C46.1 13.1 46 13 46 12.8V3.2C46 3 46.1 2.9 46.3 2.9H50.7C50.8 2.9 51 3 51 3.2V12.8ZM36.3 13.1H26.6C26.4 13.1 26.3 13 26.3 12.8V11.4C26.3 11.2 26.4 11.1 26.6 11.1H36.3C37 11.1 37.6 10.6 37.6 9.9V1.7C37.6 1 37 0.5 36.3 0.5H21.9C21.2 0.5 20.6 1 20.6 1.7V14.3C20.6 15 21.2 15.5 21.9 15.5H36.3C37 15.5 37.6 15 37.6 14.3C37.5 13.6 37 13.1 36.3 13.1ZM26.3 3.2C26.3 3 26.4 2.9 26.6 2.9H31.6C31.8 2.9 31.9 3 31.9 3.2V8.4C31.9 8.6 31.8 8.7 31.6 8.7H26.6C26.4 8.7 26.3 8.6 26.3 8.4V3.2ZM17.9 14.1L15.3 11.1H16.7C17.4 11.1 18 10.6 18 9.9V1.7C18 1 17.4 0.5 16.7 0.5H1.7C1.1 0.5 0.5 1 0.5 1.7V14.3C0.5 15 1.1 15.5 1.8 15.5H4.9C5.6 15.5 6.2 15 6.2 14.3V11.1H8.4L12.1 15.5H17.5H17.6C18.3 15.4 18.4 14.8 17.9 14.1ZM12.4 8.4C12.4 8.6 12.3 8.7 12.1 8.7H6.4C6.2 8.7 6.1 8.6 6.1 8.4V3.2C6.1 3 6.2 2.9 6.4 2.9H12C12.2 2.9 12.3 3 12.3 3.2V8.4H12.4Z"/>
    </symbol>




    <!-- ============== SYSTEM ICONS ============== -->

    <!-- Basket big -->
    <symbol id="i-basket-big" xmlns="http://www.w3.org/2000/svg" viewBox="0 0 93 95">
        <path d="M79 27.4h-4.5v-14.4c0-6.9-5.6-12.5-12.5-12.5h-31c-6.9 0-12.5 5.6-12.5 12.5v14.4h-4.5c-7.7 0-14 6.3-14 14v39.6c0 7.7 6.3 14 14 14h65c7.7 0 14-6.3 14-14v-39.6c0-7.8-6.3-14-14-14zm-55.5-14.4c0-4.1 3.4-7.5 7.5-7.5h31c4.1 0 7.5 3.4 7.5 7.5v14.4h-46v-14.4zm64.5 68c0 5-4 9-9 9h-65c-5 0-9-4-9-9v-39.6c0-5 4-9 9-9h4.5v24.6c0 1.4 1.1 2.5 2.5 2.5s2.5-1.1 2.5-2.5v-24.6h46v24.6c0 1.4 1.1 2.5 2.5 2.5s2.5-1.1 2.5-2.5v-24.6h4.5c5 0 9 4 9 9v39.6z"></path>
    </symbol>

    <!-- Arrow down of gallery -->
    <symbol id="i-arrow-d-gallery" viewBox="0 0 40 24" xmlns="http://www.w3.org/2000/svg" >
        <path fill-rule="evenodd" clip-rule="evenodd" d="M39.402.485c.745.696.802 1.884.128 2.653l-17.273 19.722c-.329.376-.791.598-1.281.617-.49.019-.966-.168-1.322-.517l-19.091-18.783c-.727-.715-.755-1.904-.063-2.655.693-.751 1.843-.78 2.571-.065l17.74 17.454 16.021-18.293c.674-.769 1.823-.829 2.568-.133z"/>
    </symbol>

    <!-- Arrow top of gallery -->
    <symbol id="i-arrow-t-gallery" viewBox="0 0 40 24" xmlns="http://www.w3.org/2000/svg">
        <path fill-rule="evenodd" clip-rule="evenodd" d="M.598 22.993c-.745-.696-.802-1.884-.128-2.653l17.273-19.722c.329-.376.791-.598 1.281-.617.49-.019.966.168 1.322.517l19.091 18.783c.727.715.755 1.904.063 2.655-.692.751-1.843.78-2.57.065l-17.74-17.454-16.021 18.293c-.674.769-1.823.829-2.568.133z"/>
    </symbol>

    <!-- Product item preloader-->
    <symbol  id="i-product-item-preloader" viewBox="0 0 270 374" xmlns="http://www.w3.org/2000/svg" fill="none">
        <path d="M0 10c0-5.523 4.477-10 10-10h250c5.523 0 10 4.477 10 10v220c0 5.523-4.477 10-10 10h-250c-5.523 0-10-4.477-10-10v-220zM0 260.334c0-4.692 3.804-8.497 8.497-8.497h253.006c4.693 0 8.497 3.805 8.497 8.497 0 4.693-3.804 8.497-8.497 8.497h-253.006c-4.693 0-8.497-3.804-8.497-8.497zM0 286.503c0-4.693 3.804-8.497 8.497-8.497h197.182c4.692 0 8.497 3.804 8.497 8.497s-3.805 8.497-8.497 8.497h-197.182c-4.693 0-8.497-3.804-8.497-8.497zM60.412 313.5c0-4.693 3.804-8.497 8.497-8.497h132.182c4.693 0 8.497 3.804 8.497 8.497s-3.804 8.497-8.497 8.497h-132.182c-4.693 0-8.497-3.804-8.497-8.497zM65 339c0-2.761 2.239-5 5-5h130c2.761 0 5 2.239 5 5v30c0 2.761-2.239 5-5 5h-130c-2.761 0-5-2.239-5-5v-30z" fill="#F6F8FA"/><circle cx="236" cy="30" r="20" fill="#E5E5E5"/>
    </symbol>



    <!-- Navigate catalog adapter (Desktop)  -->




    <!-- ============== PROMO ICONS =============== -->

    <!-- СУПЕР ЦЕНА (STOCK) -->
    <symbol id="i-promo-stock" fill="none" xmlns="http://www.w3.org/2000/svg" viewBox="0 0 140 148">
        <path fill-rule="evenodd" clip-rule="evenodd" d="M6.558 29.289C1.138 33.392.07 41.11 4.174 46.53c3.304 4.363 9.26 12.973 7.806 18.25a65.066 65.066 0 00-2.332 17.314c0 35.898 29.102 65 65 65 35.899 0 65-29.102 65-65 0-35.899-29.101-65-65-65h-.204c-5.472.017-12.005-7.815-15.307-12.177-4.103-5.42-11.822-6.486-17.242-2.383L6.558 29.289z" fill="#F4D050"></path>
        <path d="M13.792 45.717c-.736.551-1.449.79-2.138.714-.684-.08-1.297-.454-1.84-1.122a27.04 27.04 0 01-.534-.699c-.248-.33-.425-.573-.532-.726-.484-.703-.666-1.396-.544-2.079.124-.692.548-1.31 1.274-1.852.475-.356.95-.583 1.427-.681.472-.104.91-.086 1.314.053.4.134.737.373 1.011.717l.012.016a.18.18 0 01.028.154.211.211 0 01-.082.124l-.76.57c-.065.047-.123.07-.175.067-.052-.002-.116-.033-.194-.092-.337-.272-.654-.401-.951-.387-.302.01-.618.138-.949.385-.768.575-.847 1.305-.236 2.188.103.148.266.372.49.67.223.3.396.524.517.675.675.835 1.397.965 2.165.39.331-.248.543-.515.637-.801.1-.29.065-.631-.103-1.022-.04-.087-.054-.156-.042-.206a.321.321 0 01.123-.154l.76-.57c.048-.035.1-.05.156-.041a.163.163 0 01.138.084c.253.36.39.754.409 1.18.015.422-.091.847-.32 1.276-.232.424-.585.813-1.06 1.169zm2.828-10.985a.192.192 0 01.148-.036.18.18 0 01.14.07.49.49 0 01.07.16l1.141 4.88c.133.566.203 1.022.21 1.366.014.34-.05.645-.188.916-.14.27-.385.537-.737.8l-.376.282a.231.231 0 01-.178.046.232.232 0 01-.158-.094l-.444-.592a.243.243 0 01-.051-.186.231.231 0 01.094-.158l.296-.222a.94.94 0 00.356-.492c.057-.191.06-.444.01-.756l-4.825-2.222a.235.235 0 01-.084-.063.203.203 0 01-.041-.155.22.22 0 01.086-.152l.784-.588c.091-.068.198-.069.322-.003l3.395 1.581-.817-3.51c-.038-.13-.004-.235.103-.315l.744-.557zm4.772 5.172a.231.231 0 01-.178.046.231.231 0 01-.158-.094l-3.9-5.212a.266.266 0 01-.06-.18.244.244 0 01.102-.164l4.195-3.14a.244.244 0 01.186-.052.25.25 0 01.164.102l3.9 5.212a.238.238 0 01.052.186.267.267 0 01-.108.156l-.72.54a.231.231 0 01-.178.045.232.232 0 01-.158-.094l-3.302-4.411-2.362 1.767 3.302 4.412c.04.053.055.112.046.178a.212.212 0 01-.094.158l-.729.545zm5.432-4.066a.231.231 0 01-.178.046.231.231 0 01-.158-.094l-3.9-5.212a.266.266 0 01-.06-.18.243.243 0 01.102-.164l3.523-2.636a.243.243 0 01.186-.052c.065.01.12.043.164.102l.395.528c.044.06.061.121.052.187a.267.267 0 01-.108.155l-2.634 1.972 1.06 1.417 2.458-1.84a.243.243 0 01.186-.052.212.212 0 01.158.095l.372.496c.043.059.06.12.051.186a.267.267 0 01-.108.156l-2.458 1.84 1.097 1.465 2.698-2.02a.244.244 0 01.186-.052c.065.01.12.044.164.103l.395.528a.24.24 0 01.052.186.267.267 0 01-.108.156l-3.587 2.684zm4.58-3.428a.231.231 0 01-.178.046.231.231 0 01-.158-.094l-3.9-5.212a.266.266 0 01-.06-.18.244.244 0 01.102-.164l2.145-1.605c.641-.48 1.26-.705 1.855-.677.592.024 1.106.326 1.541.908.436.582.581 1.16.437 1.734-.144.566-.538 1.09-1.184 1.573l-1.193.893 1.402 1.873c.04.054.055.113.046.178a.212.212 0 01-.094.158l-.76.57zm-.105-4.53c.31-.231.493-.481.55-.749.054-.273-.027-.554-.243-.842-.207-.278-.45-.434-.725-.469-.28-.04-.58.06-.9.3l-1.17.874 1.319 1.761 1.169-.875zm11.31-2.107a.231.231 0 01-.178.046.212.212 0 01-.158-.094l-.696-.928-3.866 2.894a.243.243 0 01-.186.052.267.267 0 01-.156-.109l-3.901-5.212a.212.212 0 01-.046-.178.232.232 0 01.094-.158l.729-.545a.212.212 0 01.178-.046.211.211 0 01.158.095L37.882 26l2.362-1.767-3.301-4.411a.212.212 0 01-.046-.178.232.232 0 01.094-.158l.72-.54a.244.244 0 01.186-.051.212.212 0 01.158.094l3.302 4.411.384-.287a.243.243 0 01.186-.052.23.23 0 01.158.094l1.3 1.737a.23.23 0 01.046.178.244.244 0 01-.102.164l-.72.54zm.76-2.318a.231.231 0 01-.178.046.231.231 0 01-.157-.094l-3.901-5.212a.266.266 0 01-.06-.18.244.244 0 01.102-.164l3.523-2.636a.244.244 0 01.186-.052c.065.01.12.043.164.102l.395.528c.044.06.061.121.052.186a.266.266 0 01-.108.156l-2.634 1.972 1.06 1.417 2.458-1.84a.243.243 0 01.186-.052.212.212 0 01.158.095l.372.496c.044.059.061.12.052.186a.267.267 0 01-.109.156l-2.457 1.84 1.096 1.464 2.698-2.019a.244.244 0 01.186-.052c.066.01.12.044.164.103l.396.528c.044.059.06.12.051.186a.267.267 0 01-.108.156l-3.587 2.684zm4.58-3.428a.231.231 0 01-.177.046.231.231 0 01-.158-.094l-3.901-5.212a.266.266 0 01-.06-.18.244.244 0 01.102-.164l.729-.545a.212.212 0 01.178-.046.25.25 0 01.164.102L46.37 16l2.362-1.768-1.546-2.065a.266.266 0 01-.06-.18.244.244 0 01.103-.164l.72-.54a.244.244 0 01.186-.051.24.24 0 01.164.102l3.901 5.212c.044.058.061.12.052.186a.267.267 0 01-.108.156l-.72.539a.231.231 0 01-.179.046.231.231 0 01-.158-.094l-1.606-2.146-2.361 1.768 1.605 2.145a.23.23 0 01.046.178.212.212 0 01-.094.158l-.728.545zm4.896-3.664a.227.227 0 01-.156.042.204.204 0 01-.138-.084l-.038-.084-1.935-6.608c-.063-.161-.019-.298.13-.41l.873-.653c.139-.104.282-.107.43-.01l5.794 3.72a.3.3 0 01.062.066c.036.048.05.1.042.156a.192.192 0 01-.076.132l-.697.521a.298.298 0 01-.196.072.272.272 0 01-.15-.05l-1.107-.695-2.378 1.78.355 1.258a.29.29 0 01-.118.326l-.697.521zm1.869-4.596l-2.764-1.79.947 3.15 1.817-1.36z" fill="#fff"></path>
    </symbol>

    <!-- ПОДАРОК (GIFT) -->
    <symbol id="i-promo-gift" fill="none" xmlns="http://www.w3.org/2000/svg" viewBox="0 0 140 148">
        <path fill-rule="evenodd" clip-rule="evenodd" d="M6.558 29.289C1.138 33.392.07 41.11 4.174 46.53c3.304 4.363 9.26 12.973 7.806 18.25a65.066 65.066 0 00-2.332 17.314c0 35.898 29.102 65 65 65 35.899 0 65-29.102 65-65 0-35.899-29.101-65-65-65h-.204c-5.472.017-12.005-7.815-15.307-12.177-4.103-5.42-11.822-6.486-17.242-2.383L6.558 29.289z" fill="#FF84A1"></path>
        <path d="M16.987 43.2a.232.232 0 01-.178.047.232.232 0 01-.158-.094l-3.9-5.212a.267.267 0 01-.06-.18.244.244 0 01.102-.164l4.195-3.14a.243.243 0 01.186-.052c.065.01.12.043.164.102l3.9 5.212c.045.059.062.12.053.186a.267.267 0 01-.109.156l-.72.54a.232.232 0 01-.178.045.232.232 0 01-.158-.094l-3.302-4.411-2.361 1.767 3.301 4.412c.04.053.055.112.046.178a.212.212 0 01-.094.158l-.729.545zm7.454-5.453c-.726.543-1.43.783-2.11.718-.682-.065-1.305-.452-1.87-1.162-.12-.15-.293-.375-.517-.674a27.19 27.19 0 01-.507-.695c-.51-.726-.699-1.434-.566-2.124.133-.691.551-1.3 1.256-1.827.704-.527 1.406-.757 2.106-.69.706.063 1.334.442 1.887 1.136.242.301.42.527.531.676.108.145.273.375.494.693.516.746.71 1.455.58 2.126-.13.672-.558 1.28-1.284 1.823zm-.69-.92c.358-.268.564-.589.618-.962.05-.379-.084-.795-.399-1.25a29.591 29.591 0 00-.47-.66 27.432 27.432 0 00-.5-.637c-.348-.431-.709-.674-1.082-.727-.377-.06-.745.045-1.102.313-.353.263-.554.584-.603.963-.054.373.077.787.392 1.242.111.16.27.377.478.655.204.272.368.486.493.642.348.431.707.678 1.08.741.373.054.738-.053 1.096-.32zm4.251-.134a.243.243 0 01-.186.052c-.056-.008-.106-.042-.15-.1l-1.294-1.73a.211.211 0 01-.046-.178.231.231 0 01.095-.158l.16-.12c.25-.187.263-.555.037-1.102-.23-.552-.683-1.279-1.358-2.18l-1.252-1.674a.212.212 0 01-.046-.178.232.232 0 01.094-.158l3.434-2.57a.244.244 0 01.187-.053c.065.01.12.044.163.103l3.296 4.403.384-.288a.244.244 0 01.186-.052c.066.01.118.041.158.095l1.295 1.729c.04.053.055.113.045.178a.243.243 0 01-.102.164l-.72.54a.231.231 0 01-.178.045.212.212 0 01-.158-.094l-.69-.92-3.266 2.444.69.92c.043.06.058.119.045.179a.244.244 0 01-.102.164l-.72.539zm2.021-4.81l-2.696-3.603-1.641 1.229.755 1.008c.49.657.857 1.224 1.098 1.701.246.474.38.881.403 1.223l2.081-1.558zm2.591-.378a.227.227 0 01-.155.042.203.203 0 01-.138-.085l-.038-.084-1.936-6.608c-.062-.16-.019-.298.13-.41l.873-.652c.14-.104.282-.108.43-.01l5.795 3.72a.303.303 0 01.062.066c.035.048.05.1.041.156a.192.192 0 01-.076.132l-.696.521a.298.298 0 01-.196.072.271.271 0 01-.15-.05l-1.108-.695-2.377 1.78.354 1.258a.29.29 0 01-.118.325l-.697.522zm1.87-4.596l-2.765-1.791.947 3.15 1.817-1.36zm3.818.34a.232.232 0 01-.178.045.232.232 0 01-.158-.094l-3.901-5.212a.267.267 0 01-.06-.18.243.243 0 01.102-.164l2.146-1.606c.64-.48 1.259-.704 1.855-.676.592.023 1.105.326 1.54.908.436.581.581 1.16.437 1.734-.143.565-.538 1.09-1.184 1.573l-1.193.893 1.403 1.873c.04.053.055.113.045.178a.212.212 0 01-.094.158l-.76.57zm-.106-4.53c.31-.233.493-.482.55-.75.055-.274-.027-.554-.242-.843-.208-.277-.45-.433-.726-.468-.28-.04-.58.06-.9.299l-1.169.875 1.318 1.761 1.17-.875zm7.004-.509c-.726.543-1.43.783-2.11.718-.682-.065-1.305-.452-1.87-1.162-.12-.15-.293-.375-.517-.674a27.044 27.044 0 01-.507-.695c-.51-.726-.699-1.434-.566-2.124.133-.691.551-1.3 1.256-1.827.704-.528 1.407-.758 2.107-.69.705.063 1.334.442 1.886 1.136.243.301.42.527.532.676.108.144.272.375.493.693.517.746.71 1.454.58 2.126-.13.672-.558 1.28-1.284 1.823zm-.689-.92c.358-.268.563-.589.617-.962.05-.379-.083-.795-.399-1.25a29.84 29.84 0 00-.47-.66 27.656 27.656 0 00-.5-.637c-.348-.431-.708-.674-1.082-.727-.377-.06-.744.045-1.102.313-.352.263-.553.584-.603.963-.054.373.077.787.393 1.242.11.159.27.377.477.655.204.272.368.486.494.642.347.431.707.678 1.079.741.373.054.739-.053 1.096-.32zm7.914-5.037a.18.18 0 01.09.07.22.22 0 01.04.17.2.2 0 01-.087.152l-.824.618a.327.327 0 01-.169.075.768.768 0 01-.173-.032l-3.025-1.17-.76.569 1.605 2.145c.04.053.055.113.046.178a.212.212 0 01-.094.158l-.729.545a.231.231 0 01-.178.046.231.231 0 01-.158-.094l-3.9-5.212a.266.266 0 01-.06-.18.244.244 0 01.102-.164l.728-.545a.211.211 0 01.178-.046c.066.01.12.043.164.102l1.546 2.066.71-.52-.296-3.1c-.019-.136.041-.256.18-.36l.793-.593c.053-.04.105-.054.156-.042a.204.204 0 01.138.084.322.322 0 01.04.12l.314 3.575 3.623 1.385z" fill="#fff"></path>
    </symbol>

    <!-- НОВИНКА (NEW) -->
    <symbol id="i-promo-new" fill="none" xmlns="http://www.w3.org/2000/svg" viewBox="0 0 140 148" >
        <path fill-rule="evenodd" clip-rule="evenodd" d="M6.558 29.289C1.138 33.392.07 41.11 4.174 46.53c3.304 4.363 9.26 12.973 7.806 18.25a65.066 65.066 0 00-2.332 17.314c0 35.898 29.102 65 65 65 35.899 0 65-29.102 65-65 0-35.899-29.101-65-65-65h-.204c-5.472.017-12.005-7.815-15.307-12.177-4.103-5.42-11.822-6.486-17.242-2.383L6.558 29.289z" fill="#89D000"></path>
        <path d="M16.69 43.423a.232.232 0 01-.178.046.232.232 0 01-.158-.094l-3.9-5.212a.267.267 0 01-.06-.18.243.243 0 01.102-.164l.728-.545a.212.212 0 01.178-.046c.066.01.12.043.164.102l1.546 2.066 2.362-1.768-1.546-2.066a.267.267 0 01-.06-.18.244.244 0 01.102-.164l.72-.539a.244.244 0 01.187-.052.25.25 0 01.164.102l3.9 5.212c.045.06.062.121.053.186a.267.267 0 01-.109.156l-.72.54a.231.231 0 01-.178.045.231.231 0 01-.158-.094l-1.606-2.145-2.362 1.767 1.606 2.146c.04.053.055.113.046.178a.212.212 0 01-.094.158l-.729.545zm7.454-5.454c-.726.544-1.43.783-2.111.718-.681-.064-1.304-.452-1.869-1.161a28.569 28.569 0 01-.517-.675 27.044 27.044 0 01-.507-.694c-.51-.726-.699-1.434-.566-2.125.132-.69.551-1.3 1.255-1.827.705-.527 1.407-.757 2.107-.69.706.064 1.334.442 1.887 1.136.242.302.42.527.531.677.108.144.273.375.494.692.516.746.71 1.455.58 2.127-.13.672-.558 1.28-1.284 1.822zm-.69-.92c.358-.268.564-.588.618-.962.05-.378-.084-.795-.4-1.25a29.506 29.506 0 00-.469-.66 27.211 27.211 0 00-.5-.637c-.348-.431-.709-.673-1.082-.727-.377-.06-.745.045-1.102.313-.353.264-.554.585-.603.963-.054.374.077.788.392 1.243.11.158.27.377.478.654.203.272.368.486.493.643.348.43.707.678 1.08.74.373.054.738-.053 1.096-.32zm3.835-1.558a.231.231 0 01-.178.046.231.231 0 01-.158-.095l-3.901-5.212a.267.267 0 01-.06-.18.244.244 0 01.102-.163l2.322-1.738c.625-.468 1.193-.676 1.705-.626.513.04.947.298 1.303.773.208.277.316.567.325.868.01.292-.043.549-.16.77.3-.066.61-.04.931.077.327.114.6.317.82.61.371.497.503 1.023.394 1.58-.103.551-.456 1.053-1.06 1.504l-2.385 1.786zm-.297-4.936c.277-.208.438-.433.482-.674.045-.241-.017-.474-.185-.698-.172-.23-.376-.352-.612-.367-.24-.02-.498.074-.776.281l-1.257.941 1.09 1.457 1.258-.94zm1.92 2.397c.277-.207.437-.444.48-.71a.99.99 0 00-.205-.757c-.18-.24-.403-.377-.67-.411-.27-.039-.545.045-.822.253l-1.337 1 1.216 1.626 1.337-1zm3.465-1.27a.244.244 0 01-.186.052.267.267 0 01-.156-.108l-3.895-5.204a.243.243 0 01-.052-.186.244.244 0 01.102-.164l.721-.539a.212.212 0 01.178-.046c.065.01.12.044.164.103l2.75 3.674-.17-5.718a.337.337 0 01.136-.302l.665-.497a.212.212 0 01.178-.046c.065.01.12.043.164.102l3.9 5.212c.04.053.056.113.046.178a.212.212 0 01-.094.158l-.72.54a.267.267 0 01-.18.06.243.243 0 01-.164-.103l-2.697-3.603.119 5.632a.51.51 0 01-.024.168.306.306 0 01-.113.134l-.672.504zm5.682-4.252a.232.232 0 01-.178.046.232.232 0 01-.158-.095l-3.9-5.212a.267.267 0 01-.06-.18.243.243 0 01.102-.163l.728-.546a.212.212 0 01.178-.046c.066.01.12.044.164.102l1.546 2.066 2.362-1.768-1.546-2.065a.267.267 0 01-.06-.18.244.244 0 01.102-.164l.721-.54a.244.244 0 01.186-.051c.065.01.12.043.164.102l3.9 5.212c.045.059.062.12.053.186a.267.267 0 01-.109.156l-.72.54a.231.231 0 01-.178.045.232.232 0 01-.158-.094l-1.606-2.146-2.362 1.768 1.606 2.145c.04.054.055.113.046.179a.212.212 0 01-.094.157l-.729.546zm9.512-7.544a.18.18 0 01.09.07.22.22 0 01.04.17.2.2 0 01-.086.152l-.825.617a.328.328 0 01-.168.076.764.764 0 01-.174-.032l-3.025-1.171-.76.57 1.605 2.145c.04.053.056.113.046.178a.212.212 0 01-.094.158l-.728.545a.232.232 0 01-.179.046.232.232 0 01-.157-.094l-3.901-5.212a.268.268 0 01-.06-.18.244.244 0 01.102-.164l.729-.546a.212.212 0 01.178-.045c.065.01.12.043.164.102l1.545 2.065.711-.519-.297-3.1c-.018-.136.042-.256.18-.36l.793-.593c.053-.04.106-.054.156-.042a.203.203 0 01.138.084c.016.021.03.062.04.12l.314 3.574 3.623 1.386zm.347.165a.227.227 0 01-.156.042.203.203 0 01-.138-.084l-.038-.084-1.935-6.608c-.063-.162-.02-.298.13-.41l.873-.653c.139-.104.282-.107.43-.01l5.794 3.72a.308.308 0 01.062.066c.036.048.05.1.042.156a.192.192 0 01-.076.132l-.697.521a.299.299 0 01-.196.072.272.272 0 01-.15-.05l-1.107-.695-2.378 1.78.355 1.258a.29.29 0 01-.118.326l-.697.52zm1.869-4.596l-2.764-1.791.946 3.15 1.818-1.36z" fill="#fff"></path>
    </symbol>



</svg>